<?xml version="1.0" encoding="UTF-8" standalone="no" ?>
<!DOCTYPE svg PUBLIC "-//W3C//DTD SVG 1.1//EN" "http://www.w3.org/Graphics/SVG/1.1/DTD/svg11.dtd">
<svg xmlns="http://www.w3.org/2000/svg" xmlns:xlink="http://www.w3.org/1999/xlink" version="1.1" width="196.6061" height="219.34544" xml:space="preserve">
<desc>Created with Fabric.js 1.6.0-rc.1</desc>
<defs></defs>
<g style="stroke: none; stroke-width: 1; stroke-dasharray: none; stroke-linecap: butt; stroke-linejoin: miter; stroke-miterlimit: 10; fill: none; fill-rule: nonzero; opacity: 1;" transform="translate(10 10) scale(0.09 0.08)" >
  <path d="M 1661.125 141.054 s 8.135 -69.121 -95.566 -77.267 c 0 0 -723.8 -54.893 -1413.048 -14.219 c 0 0 -119.95 0 -117.92 63.019 l 28.164 1127.922 s 6.094 76.631 57.939 134.58 c 0 0 138.926 149.414 712.93 436.084 c 0 0 549.6 -259.209 714.289 -408.644 c 0 0 73.185 -45.741 76.229 -149.424 c 0 0 40.4 -1016.454 36.983 -1112.051 z" style="stroke: none; stroke-width: 1; stroke-dasharray: none; stroke-linecap: butt; stroke-linejoin: miter; stroke-miterlimit: 10; fill: #ea9307; fill-rule: nonzero; opacity: 1;" transform="" stroke-linecap="round" />
  <path d="M 703.956 34.56 c 476.124 0 861.603 29.229 861.603 29.229 c 103.7 8.146 95.566 77.267 95.566 77.267 c 3.418 95.597 -36.982 1112.053 -36.982 1112.053 c -3.047 103.682 -76.23 149.424 -76.23 149.424 c -164.687 149.435 -714.287 408.644 -714.287 408.644 c -574.005 -286.671 -712.931 -436.084 -712.931 -436.084 c -51.847 -57.949 -57.94 -134.58 -57.94 -134.58 L 34.593 112.591 c -2.03 -63.019 117.92 -63.019 117.92 -63.019 C 338.829 38.564 527.569 34.56 703.956 34.56 m 0 -34.56 c -197.54 0 -383.467 5.05 -552.627 15.011 c -4.884 0.059 -23.927 0.565 -46.113 4.414 c -37.344 6.465 -65.293 19.043 -83.057 37.393 C 7.032 72.443 -0.624 92.072 0.039 113.556 l 28.165 1127.813 c 0.01 0.635 0.038 1.26 0.098 1.885 c 0.283 3.613 7.695 89.005 66.63 154.873 c 0.147 0.166 0.304 0.332 0.45 0.498 c 5.85 6.279 149.774 157.306 722.804 443.468 a 34.345 34.345 0 0 0 15.439 3.643 a 34.683 34.683 0 0 0 14.746 -3.291 c 1.377 -0.664 139.922 -66.104 296.787 -148.993 c 210.38 -111.162 353.047 -199.854 424.13 -263.644 c 15.89 -11.094 86.105 -66.201 89.405 -175.488 c 1.729 -43.525 39.932 -1007.286 37.03 -1112.696 c 0.488 -10.226 -0.371 -39.229 -22.401 -66.046 c -22.13 -26.942 -57.48 -42.51 -105.06 -46.239 C 1564.298 29.033 1175.929 0 703.956 0 z" style="stroke: none; stroke-width: 1; stroke-dasharray: none; stroke-linecap: butt; stroke-linejoin: miter; stroke-miterlimit: 10; fill: #8e000a; fill-rule: nonzero; opacity: 1;" transform="" stroke-linecap="round" />
  <path d="M 2773.5 1194.51 v -310 h -190 v 160 h -50 v -220 h -5.96 c -9.022 -30 -34.238 -50.061 -64.354 -51.594 l -3.945 -68.438 l -3.945 68.647 c -29.775 1.846 -54.629 21.383 -63.574 51.383 h -8.22 v 350 h -10 v -290 h -80 v -30 h -40 v 30 h -10 v -10 h -50 v 100 h -10 v -350 h -160 v -10 h -30 v 10 h -20 v 60 h -30 v -10 h -10.423 l -39.577 -44.241 V 504.623 v 124.2 l -0.84 1.162 l 0.84 0.84 v 15.576 l -27.63 28.107 h -32.37 v 10 h -30 v 270 h -30 v -70 h 0.543 h -30.545 v 30 h 30 v 40 h -70 v 50 h -60 v 20 h -20 v 10 h -50 v -160 h -20 v -20 h -80 v 20 h -20 v 130 h -20 v -120 h -120 v 310 h -340 v 1640 h 2170 v -1640 h -370 z m -844.457 -520 H 1893.5 v -40.218 l 35.543 40.218 z m -35.543 -24.095 v 24.095 h -23.597 l 23.597 -24.095 z" style="stroke: none; stroke-width: 1; stroke-dasharray: none; stroke-linecap: butt; stroke-linejoin: miter; stroke-miterlimit: 10; fill: #8e000a; fill-rule: nonzero; opacity: 1;" transform=" matrix(1 0 0 1 -1182.207 -433.852) " stroke-linecap="round" />
  <path d="M 944.249 1105.84 c -165.85 0 -371.788 -4.619 -384.776 -4.902 l 0.254 -11.377 c 4.824 0.117 482.979 10.83 576.192 0.039 l 1.289 11.289 c -32.051 3.711 -107.147 4.951 -192.959 4.951 z M 825.138 1138.721 c -82.696 0 -172.247 -3.359 -254.854 -13.429 l 1.377 -11.278 c 245.234 29.883 552.432 0.293 555.508 -0.021 l 1.113 11.318 c -2.051 0.207 -139.093 13.41 -303.144 13.41 z M 819.474 1172.276 c -79.258 0 -163.428 -1.953 -237.588 -7.813 l 0.89 -11.339 c 220.547 17.441 530.176 0.166 533.262 -0.01 l 0.645 11.349 c -2.063 0.118 -139.983 7.813 -297.209 7.813 z M 778.418 1200.86 c -72.422 0 -138.311 -1.854 -172.998 -7.422 l 1.797 -11.221 c 100.527 16.151 481.084 0.106 484.913 -0.068 l 0.498 11.357 c -10.342 0.45 -174.404 7.354 -314.21 7.354 z" style="stroke: none; stroke-width: 1; stroke-dasharray: none; stroke-linecap: butt; stroke-linejoin: miter; stroke-miterlimit: 10; fill: #efe8c5; fill-rule: nonzero; opacity: 1;" transform="" stroke-linecap="round" />
  <path d="M 1127.716 1017.403 s -497.413 -6.317 -559.268 0 c 0 0 -88.379 -3.789 -61.865 68.174 c 0 0 47.969 112.363 85.85 136.338 c 0 0 23.984 22.727 116.152 23.995 c 0 0 311.827 2.521 340.87 0 c 0 0 55.547 -6.317 79.531 -46.72 c 0 0 51.777 -77.002 65.654 -121.191 c 0 0 20.205 -58.077 -66.924 -60.596 z m 26.523 77.842 c -20.195 130.88 -112.363 124.142 -112.363 124.142 c -142.656 20.206 -398.946 0 -398.946 0 c -80.801 -6.31 -98.477 -113.613 -98.477 -113.613 c -18.926 -55.557 61.865 -63.125 61.865 -63.125 c 100.067 0.381 486.064 0 486.064 0 c 79.533 5.047 61.857 52.596 61.857 52.596 z M 357.618 1036.954 s -43.575 38.839 -33.154 111.738 c 0 0 132.09 51.543 209.258 42.813 c -0.001 0 -89.952 -208.516 -176.104 -154.551 z m 66.416 84.668 c -6.504 15.841 -22.804 24.142 -36.416 18.546 c -13.613 -5.576 -19.365 -22.949 -12.871 -38.779 c 6.514 -15.84 22.813 -24.131 36.426 -18.545 c 13.613 5.594 19.365 22.949 12.861 38.778 z m 49.092 31.494 c -8.525 11.056 -18.896 9.58 -18.896 9.58 c -22.041 -6.201 -9.502 -48.701 -9.502 -48.701 c 2.52 -34.688 -37.882 -71.348 -37.882 -71.348 c 79.541 59.336 94.775 120.049 94.775 120.049 c -16.953 -26.699 -28.495 -9.58 -28.495 -9.58 z M 523.301 896.827 s -31.24 92.793 -70.059 90.898 c 0 0 -53.965 -7.568 -96.582 34.092 c 0 0 28.397 -46.406 76.699 -62.51 c 0.001 0 55.86 -2.822 89.942 -62.48 z M 539.415 883.565 s 15.557 -46.387 66.006 -95.625 c 0 0 20.146 -17.998 43.818 -17.998 c 0 0 224.404 -22.725 392.012 0 c 0 0 28.397 1.904 46.387 16.094 c 0 0 54.923 54.922 70.068 97.529 c 0 0 -61.553 -98.478 -104.149 -98.478 c 0 0 -249.972 -27.44 -414.728 0.947 c 0 0 -31.924 -0.535 -99.414 97.531 z M 1056.388 917.657 c 0 2.617 -91.776 4.736 -204.989 4.736 c -113.214 0 -204.991 -2.119 -204.991 -4.736 c 0 -2.627 91.776 -4.735 204.991 -4.735 c 113.21 0 204.989 2.108 204.989 4.735 z M 304.58 1306.828 s -0.947 146.758 128.78 122.129 c 0 0 -89.962 -6.621 -128.78 -122.129 z M 1164.337 1191.503 c 77.168 8.73 209.258 -42.813 209.258 -42.813 c 10.41 -72.9 -33.145 -111.738 -33.145 -111.738 c -86.162 -53.963 -176.113 154.551 -176.113 154.551 z m 122.56 -108.661 c 13.604 -5.587 29.901 2.704 36.405 18.545 c 6.504 15.83 0.752 33.203 -12.86 38.778 c -13.604 5.597 -29.912 -2.704 -36.416 -18.545 c -6.504 -15.827 -0.744 -33.182 12.871 -38.778 z m -90.451 79.854 s 15.233 -60.713 94.766 -120.049 c 0 0 -40.391 36.66 -37.871 71.348 c 0 0 12.539 42.5 -9.512 48.701 c 0 0 -10.371 1.476 -18.896 -9.58 c 0 0 -11.535 -17.119 -28.487 9.58 z M 1174.757 896.827 s 31.24 92.793 70.06 90.898 c 0 0 53.975 -7.568 96.592 34.092 c 0 0 -28.418 -46.406 -76.699 -62.51 c 0 0 -55.871 -2.822 -89.953 -62.48 z M 1393.479 1306.828 s 0.946 146.758 -128.771 122.129 c 0 0 89.94 -6.621 128.771 -122.129 z M 406.846 1330.49 s 26.631 68.242 57.275 78.33 c 2.031 0.674 4.092 1.084 6.162 1.201 c 33.135 1.904 401.163 56.816 753.389 0 c 0 0 40.41 8.848 65.654 -79.531 c 0 0 -17.676 -1.963 -41.67 38.789 c 0 0 0 25.605 -32.188 31.279 c 0 0 -390.116 52.08 -735.713 0.947 c 0 0 -14.209 -2.842 -30.303 -27.461 c 0 0 -9.471 -32.197 -42.606 -43.554 z" style="stroke: none; stroke-width: 1; stroke-dasharray: none; stroke-linecap: butt; stroke-linejoin: miter; stroke-miterlimit: 10; fill: #efe8c5; fill-rule: nonzero; opacity: 1;" transform="" stroke-linecap="round" />
  <path d="M 304.58 1145.85 s -44.502 53.026 0 131.622 c 0 0 505.636 132.549 1090.792 0 c 0 0 35.353 -53.028 0 -131.622 c 0 0 25.254 73.535 -42.92 91.212 c 0 0 -364.863 116.68 -1007.471 4.053 c 0 0 -58.077 -16.036 -40.401 -95.265 z" style="stroke: none; stroke-width: 1; stroke-dasharray: none; stroke-linecap: butt; stroke-linejoin: miter; stroke-miterlimit: 10; fill: #efe8c5; fill-rule: nonzero; opacity: 1;" transform="" stroke-linecap="round" />
</g>
  <g transform="translate(89.36 179.26) scale(1.17 1.17)">
   <text font-family="Broad" font-size="40" font-weight="normal" style="stroke: none; stroke-width: 1; stroke-dasharray: none; stroke-linecap: butt; stroke-linejoin: miter; stroke-miterlimit: 10; fill: #ed9f17; fill-rule: nonzero; opacity: 1;" ><tspan x="-64" y="8.98" style="stroke: none; stroke-width: 0; stroke-dasharray: none; stroke-linecap: butt; stroke-linejoin: miter; stroke-miterlimit: 4; fill: #ed9f17; fill-rule: ; opacity: 1;">L</tspan><tspan x="-38.88" y="8.98" style="stroke: none; stroke-width: 0; stroke-dasharray: none; stroke-linecap: butt; stroke-linejoin: miter; stroke-miterlimit: 4; fill: #ed9f17; fill-rule: ; opacity: 1;">&apos;</tspan><tspan x="-29.12" y="8.98" style="stroke: none; stroke-width: 0; stroke-dasharray: none; stroke-linecap: butt; stroke-linejoin: miter; stroke-miterlimit: 4; fill: #ed9f17; fill-rule: ; opacity: 1;">V</tspan><tspan x="3.08" y="8.98" style="stroke: none; stroke-width: 0; stroke-dasharray: none; stroke-linecap: butt; stroke-linejoin: miter; stroke-miterlimit: 4; fill: #ed9f17; fill-rule: ; opacity: 1;">R</tspan><tspan x="39.28" y="8.98" style="stroke: none; stroke-width: 0; stroke-dasharray: none; stroke-linecap: butt; stroke-linejoin: miter; stroke-miterlimit: 4; fill: #ed9f17; fill-rule: ; opacity: 1;">T</tspan></text>
 </g>
</svg>